<?xml version="1.0" encoding="utf-8"?><svg xmlns="http://www.w3.org/2000/svg" xmlns:xlink="http://www.w3.org/1999/xlink"><symbol viewBox="0 0 11 17" id="fb" xmlns="http://www.w3.org/2000/svg"><path d="M9.75.004L7.544 0C5.068 0 3.468 1.642 3.468 4.184v1.929H1.25a.347.347 0 00-.346.347v2.794c0 .192.155.347.346.347h2.217v7.052c0 .192.155.347.346.347h2.892a.347.347 0 00.347-.347V9.601h2.592a.347.347 0 00.346-.347l.001-2.794a.347.347 0 00-.347-.347H7.053V4.477c0-.785.187-1.184 1.211-1.184l1.485-.001a.347.347 0 00.346-.347V.35A.347.347 0 009.75.004z"/></symbol><symbol viewBox="0 0 20 12" id="vk" xmlns="http://www.w3.org/2000/svg"><path d="M19.894 10.6a1.36 1.36 0 00-.068-.13c-.347-.625-1.01-1.392-1.989-2.302l-.02-.02-.01-.01-.011-.011h-.01c-.445-.424-.726-.709-.844-.854-.216-.278-.264-.56-.146-.844.083-.215.396-.67.937-1.364.285-.368.51-.663.677-.885 1.201-1.597 1.722-2.617 1.562-3.061l-.062-.104c-.042-.063-.15-.12-.323-.172-.174-.052-.396-.06-.666-.026l-3 .02a.389.389 0 00-.208.006l-.135.031-.052.026-.042.032a.463.463 0 00-.114.109.716.716 0 00-.104.182c-.327.84-.698 1.621-1.114 2.343-.257.43-.493.804-.709 1.12a5.387 5.387 0 01-.541.697c-.146.15-.278.269-.396.36-.118.09-.208.128-.27.114a7.733 7.733 0 01-.178-.042.692.692 0 01-.234-.255 1.141 1.141 0 01-.12-.406 4.45 4.45 0 01-.036-.422 8.705 8.705 0 01.005-.5c.007-.215.01-.36.01-.437 0-.264.006-.55.016-.86l.026-.733c.007-.18.01-.372.01-.573 0-.201-.012-.36-.036-.474a1.62 1.62 0 00-.109-.333.561.561 0 00-.213-.25 1.204 1.204 0 00-.35-.14c-.367-.085-.835-.13-1.404-.137-1.291-.014-2.12.07-2.489.25-.146.076-.278.18-.396.312-.125.153-.142.237-.052.25.417.063.712.212.885.448l.063.125c.049.09.097.25.146.479.048.23.08.482.093.76.035.507.035.94 0 1.302-.034.36-.067.642-.098.843a1.689 1.689 0 01-.266.719.18.18 0 01-.052.052.78.78 0 01-.281.052c-.098 0-.216-.049-.354-.146a2.499 2.499 0 01-.432-.4 5.359 5.359 0 01-.506-.714A12.448 12.448 0 015.3 3.545l-.166-.302a25.963 25.963 0 01-.427-.849c-.18-.371-.34-.73-.48-1.078a.686.686 0 00-.249-.333L3.926.952a.713.713 0 00-.167-.089 1.105 1.105 0 00-.24-.067L.668.816c-.292 0-.49.066-.594.198l-.042.063A.337.337 0 000 1.243c0 .077.02.17.063.281.416.98.869 1.924 1.358 2.833.49.91.915 1.642 1.276 2.197.36.555.729 1.08 1.104 1.572.375.493.623.81.744.948.122.139.217.243.287.312l.26.25c.167.167.411.366.734.599.323.233.68.462 1.073.687.392.226.848.41 1.37.552.52.143 1.027.2 1.52.172h1.197c.243-.02.427-.097.552-.23l.041-.051a.689.689 0 00.078-.193c.025-.086.037-.182.037-.286a3.428 3.428 0 01.067-.807c.052-.24.111-.42.178-.541a1.329 1.329 0 01.4-.459.682.682 0 01.084-.036c.166-.055.362-.002.588.162.226.163.438.364.636.604.197.24.435.508.713.807.278.298.52.52.729.666l.208.125c.139.083.32.16.542.23.221.069.416.086.583.051l2.665-.041c.264 0 .469-.044.614-.13.146-.087.233-.183.26-.287a.806.806 0 00.006-.354 1.308 1.308 0 00-.073-.276z"/></symbol></svg>