<svg width="11" height="17" viewBox="0 0 11 17" fill="none" xmlns="http://www.w3.org/2000/svg">
<path d="M9.74941 0.00353713L7.54491 0C5.06824 0 3.4677 1.64211 3.4677 4.18372V6.1127H1.25118C1.05964 6.1127 0.904541 6.26798 0.904541 6.45951V9.25438C0.904541 9.44592 1.05982 9.60102 1.25118 9.60102H3.4677V16.6534C3.4677 16.8449 3.6228 17 3.81434 17H6.70627C6.8978 17 7.0529 16.8447 7.0529 16.6534V9.60102H9.64454C9.83607 9.60102 9.99117 9.44592 9.99117 9.25438L9.99223 6.45951C9.99223 6.36755 9.95562 6.27948 9.89072 6.21439C9.82581 6.14931 9.73739 6.1127 9.64542 6.1127H7.0529V4.47748C7.0529 3.69153 7.24019 3.29254 8.26401 3.29254L9.74906 3.29201C9.94041 3.29201 10.0955 3.13673 10.0955 2.94537V0.350176C10.0955 0.158994 9.94059 0.00389085 9.74941 0.00353713Z" fill="#132C81"/>
</svg>
