<svg width="20" height="12" viewBox="0 0 20 12" fill="none" xmlns="http://www.w3.org/2000/svg">
<path d="M19.894 10.5999C19.8698 10.5477 19.8472 10.5044 19.8262 10.4697C19.4792 9.84476 18.8161 9.07767 17.8373 8.16823L17.8166 8.1474L17.8063 8.13719L17.7958 8.12672H17.7853C17.341 7.70324 17.0597 7.4185 16.9419 7.27271C16.7264 6.99501 16.6781 6.71392 16.7959 6.4291C16.8791 6.21392 17.1918 5.75947 17.7331 5.06514C18.0178 4.69717 18.2433 4.40225 18.4099 4.18006C19.611 2.58329 20.1317 1.56293 19.9719 1.11859L19.9099 1.01475C19.8682 0.952238 19.7606 0.895049 19.5872 0.842893C19.4135 0.790847 19.1914 0.78224 18.9206 0.816925L15.9217 0.837641C15.8731 0.820426 15.8037 0.822031 15.7134 0.842893C15.6231 0.863756 15.5779 0.874223 15.5779 0.874223L15.5257 0.900301L15.4843 0.931631C15.4496 0.952347 15.4114 0.988784 15.3697 1.04087C15.3282 1.09277 15.2936 1.15368 15.2658 1.22308C14.9393 2.06308 14.5681 2.84407 14.1515 3.56601C13.8946 3.99649 13.6587 4.36957 13.4433 4.68546C13.2281 5.00124 13.0476 5.2339 12.9019 5.38303C12.756 5.53232 12.6244 5.65191 12.5061 5.74225C12.3881 5.83263 12.298 5.87082 12.2355 5.85685C12.173 5.84288 12.1141 5.82902 12.0583 5.81516C11.9612 5.75265 11.8831 5.66763 11.8242 5.56004C11.765 5.45244 11.7252 5.31702 11.7044 5.15388C11.6836 4.99063 11.6714 4.85021 11.6679 4.73215C11.6646 4.61423 11.6661 4.44744 11.6732 4.23225C11.6804 4.01695 11.6836 3.87128 11.6836 3.79491C11.6836 3.53107 11.6888 3.24472 11.6991 2.9358C11.7096 2.62688 11.7181 2.38211 11.7252 2.20179C11.7323 2.02129 11.7356 1.83032 11.7356 1.62899C11.7356 1.42766 11.7233 1.26977 11.6991 1.15517C11.6752 1.04072 11.6385 0.929625 11.5901 0.821922C11.5414 0.714328 11.4701 0.631097 11.3766 0.572012C11.2829 0.512999 11.1664 0.466168 11.0278 0.431373C10.6598 0.348107 10.1912 0.303063 9.62185 0.29606C8.33069 0.282201 7.50105 0.365577 7.13311 0.546079C6.98733 0.622344 6.85541 0.726546 6.73746 0.858357C6.61247 1.01114 6.59504 1.09452 6.68527 1.10823C7.10186 1.17064 7.39677 1.31992 7.57035 1.55593L7.6329 1.681C7.68155 1.77123 7.73013 1.93098 7.77875 2.16003C7.8273 2.38907 7.85863 2.64245 7.87241 2.92001C7.90706 3.42686 7.90706 3.86074 7.87241 4.22168C7.83765 4.58275 7.80483 4.86385 7.7735 5.06518C7.74217 5.2665 7.69534 5.42965 7.6329 5.55456C7.57035 5.67952 7.52873 5.75589 7.50787 5.78361C7.48704 5.81133 7.46968 5.8288 7.4559 5.83566C7.36566 5.87023 7.27182 5.88785 7.17469 5.88785C7.07742 5.88785 6.95947 5.8392 6.82065 5.74196C6.68188 5.64472 6.53785 5.51116 6.38856 5.34105C6.23928 5.17091 6.07093 4.93315 5.88342 4.62772C5.69606 4.3223 5.50166 3.96133 5.30033 3.54482L5.13376 3.24275C5.02963 3.04843 4.88739 2.76547 4.70689 2.39414C4.52628 2.02267 4.36664 1.66334 4.22786 1.31623C4.17238 1.17045 4.08904 1.05947 3.97799 0.983094L3.92587 0.951764C3.89122 0.924045 3.8356 0.894611 3.7593 0.863245C3.68289 0.831915 3.60316 0.809448 3.51978 0.795625L0.666572 0.816341C0.375011 0.816341 0.177184 0.882393 0.073018 1.01431L0.0313299 1.07672C0.0105041 1.11148 0 1.16699 0 1.2434C0 1.31977 0.0208258 1.41351 0.0625139 1.52449C0.47903 2.50342 0.931983 3.44751 1.42137 4.35692C1.91076 5.26632 2.33603 5.99887 2.69692 6.55391C3.05789 7.10935 3.42583 7.63357 3.80073 8.12632C4.17563 8.61924 4.42379 8.93513 4.54521 9.07391C4.66677 9.21295 4.76225 9.31689 4.83166 9.3863L5.09204 9.63617C5.25865 9.80282 5.5033 10.0024 5.82612 10.2349C6.14901 10.4676 6.50648 10.6966 6.89871 10.9224C7.291 11.1479 7.74739 11.3318 8.2681 11.4741C8.78875 11.6165 9.2955 11.6737 9.78842 11.6461H10.986C11.2288 11.6251 11.4128 11.5488 11.5379 11.4169L11.5793 11.3648C11.6072 11.3233 11.6333 11.2589 11.6573 11.1723C11.6817 11.0856 11.6938 10.99 11.6938 10.886C11.6867 10.5875 11.7094 10.3185 11.7614 10.0791C11.8133 9.83965 11.8724 9.65915 11.9386 9.53759C12.0047 9.41613 12.0793 9.31365 12.1624 9.23056C12.2456 9.14729 12.3049 9.09685 12.3397 9.07949C12.3743 9.06202 12.4019 9.05017 12.4227 9.04306C12.5893 8.98755 12.7854 9.0413 13.0112 9.20459C13.2369 9.36773 13.4486 9.56917 13.6465 9.80858C13.8444 10.0482 14.0821 10.317 14.3597 10.6155C14.6376 10.9141 14.8805 11.136 15.0886 11.282L15.2968 11.407C15.4359 11.4903 15.6164 11.5667 15.8386 11.6361C16.0604 11.7055 16.2547 11.7228 16.4215 11.6882L19.0872 11.6466C19.3509 11.6466 19.556 11.6029 19.7015 11.5163C19.8474 11.4295 19.934 11.3339 19.9619 11.23C19.9898 11.1259 19.9913 11.0078 19.9672 10.8757C19.9425 10.744 19.9182 10.6519 19.894 10.5999Z" fill="#132C81"/>
</svg>
